<svg width="165" height="202" viewBox="0 0 165 202" fill="none" xmlns="http://www.w3.org/2000/svg">
<path d="M4.288 144.496C4.8 144.453 5.26933 144.432 5.696 144.432C6.16533 144.432 6.592 144.453 6.976 144.496L7.744 144.624L7.872 144.688V144.752L7.808 146.864L7.68 148.848L8.32 148.784C8.78933 148.699 10.3893 148.656 13.12 148.656L17.216 148.592H17.28L19.072 149.424C20.8213 150.235 21.952 150.768 22.464 151.024C22.976 151.323 23.3387 151.643 23.552 151.984C23.68 152.155 23.8507 152.347 24.064 152.56C24.2773 152.731 24.5547 152.901 24.896 153.072C25.28 153.243 25.6853 153.541 26.112 153.968C26.1973 154.096 26.2827 154.224 26.368 154.352C26.496 154.437 26.6027 154.544 26.688 154.672C26.816 154.8 26.9227 154.949 27.008 155.12C27.136 155.248 27.2427 155.376 27.328 155.504C27.7547 156.059 28.096 156.613 28.352 157.168C29.12 158.533 29.376 160.496 29.12 163.056C28.8213 165.872 27.6693 168.688 25.664 171.504C25.5787 171.632 25.4933 171.76 25.408 171.888C25.3227 171.973 25.216 172.101 25.088 172.272C24.96 172.4 24.8107 172.549 24.64 172.72C24.512 172.891 24.3413 173.083 24.128 173.296C23.9573 173.467 23.7867 173.659 23.616 173.872C22.5493 174.939 21.5467 175.899 20.608 176.752C19.6267 177.605 19.0293 178.032 18.816 178.032C18.7733 178.032 18.7093 178.053 18.624 178.096C18.5813 178.139 18.5173 178.203 18.432 178.288C18.3467 178.331 18.24 178.416 18.112 178.544C18.0267 178.672 17.92 178.8 17.792 178.928C17.6213 179.141 17.4507 179.333 17.28 179.504C17.1093 179.675 16.9387 179.824 16.768 179.952C16.5973 180.08 16.4267 180.187 16.256 180.272C15.744 180.528 15.0613 180.976 14.208 181.616C13.3973 182.256 12.096 183.024 10.304 183.92C9.70667 184.219 9.19467 184.453 8.768 184.624C8.34133 184.837 8 184.965 7.744 185.008C7.53067 185.093 7.31733 185.157 7.104 185.2C6.89067 185.243 6.656 185.264 6.4 185.264C6.144 185.307 5.84533 185.349 5.504 185.392C3.712 185.52 2.45333 185.371 1.728 184.944C1.00267 184.517 0.789333 183.749 1.088 182.64C1.17333 182.256 1.28 181.979 1.408 181.808C1.45067 181.765 1.51467 181.723 1.6 181.68C1.68533 181.595 1.77067 181.552 1.856 181.552C1.94133 181.509 2.02667 181.488 2.112 181.488L2.816 181.36L2.752 177.84C2.752 177.371 2.73067 176.923 2.688 176.496C2.688 176.069 2.66667 175.707 2.624 175.408C2.624 175.109 2.60267 174.832 2.56 174.576C2.56 174.32 2.53867 174.128 2.496 174C2.496 173.829 2.47467 173.723 2.432 173.68C2.26133 173.168 2.21867 169.563 2.304 162.864C2.34667 156.208 2.47467 151.643 2.688 149.168C2.944 146.565 3.15733 145.157 3.328 144.944C3.54133 144.731 3.86133 144.581 4.288 144.496ZM23.424 158.576C23.3813 158.491 23.3173 158.384 23.232 158.256C23.1893 158.128 23.1253 158 23.04 157.872C22.656 157.36 22.272 156.891 21.888 156.464C21.504 156.037 21.12 155.653 20.736 155.312C20.608 155.184 20.5013 155.077 20.416 154.992C20.3307 154.907 20.224 154.843 20.096 154.8C20.0107 154.715 19.904 154.629 19.776 154.544C19.6907 154.459 19.584 154.373 19.456 154.288C19.3707 154.203 19.264 154.139 19.136 154.096C19.008 154.011 18.88 153.947 18.752 153.904C18.6667 153.819 18.56 153.755 18.432 153.712C18.3467 153.627 18.24 153.541 18.112 153.456C17.1307 152.987 16.0427 152.581 14.848 152.24C13.824 151.984 12.8427 151.899 11.904 151.984C10.9653 152.069 10.2827 152.325 9.856 152.752C9.81333 152.795 9.74933 152.837 9.664 152.88C9.62133 152.923 9.55733 152.965 9.472 153.008C9.38667 153.051 9.30133 153.093 9.216 153.136C9.13067 153.136 9.04533 153.157 8.96 153.2C8.87467 153.243 8.768 153.285 8.64 153.328C8.55467 153.328 8.46933 153.349 8.384 153.392L7.36 153.52L7.232 161.84C7.18933 165.552 7.18933 168.795 7.232 171.568C7.27467 174.299 7.38133 176.432 7.552 177.968C7.59467 178.224 7.616 178.459 7.616 178.672C7.65867 178.885 7.68 179.077 7.68 179.248C7.72267 179.419 7.76533 179.568 7.808 179.696C7.85067 179.824 7.872 179.931 7.872 180.016C7.91467 180.059 7.936 180.101 7.936 180.144C7.97867 180.187 8 180.208 8 180.208C8.42667 180.208 10.0053 179.205 12.736 177.2C15.5093 175.195 17.3653 173.723 18.304 172.784C18.3893 172.656 18.8373 172.165 19.648 171.312C20.8853 170.032 21.952 168.475 22.848 166.64C23.232 165.957 23.488 165.467 23.616 165.168C23.744 164.827 23.808 164.464 23.808 164.08C23.8507 163.696 23.872 162.992 23.872 161.968C23.872 161.285 23.8507 160.731 23.808 160.304C23.808 159.835 23.7867 159.515 23.744 159.344C23.744 159.259 23.7227 159.195 23.68 159.152C23.68 159.067 23.6587 158.981 23.616 158.896C23.5733 158.768 23.5093 158.661 23.424 158.576ZM51.501 178.224C52.141 178.821 52.653 179.248 53.037 179.504C53.293 179.632 53.5703 180.08 53.869 180.848C54.0397 181.232 54.1463 181.552 54.189 181.808C54.2317 182.064 54.2103 182.256 54.125 182.384C54.0823 182.469 53.8477 182.512 53.421 182.512C53.037 182.555 52.461 182.576 51.693 182.576H49.389L47.597 181.232C47.0423 180.805 46.5943 180.485 46.253 180.272C45.9543 180.016 45.7837 179.888 45.741 179.888C45.6557 179.888 45.1863 180.507 44.333 181.744C43.437 183.152 42.5837 184.091 41.773 184.56C41.6023 184.645 41.4103 184.731 41.197 184.816C40.9837 184.901 40.749 184.965 40.493 185.008C40.2797 185.093 40.045 185.157 39.789 185.2C39.533 185.243 39.2557 185.285 38.957 185.328C38.6583 185.371 38.3383 185.392 37.997 185.392C35.949 185.563 34.4343 185.243 33.453 184.432C33.1117 184.091 32.7703 183.621 32.429 183.024C32.0877 182.469 31.8103 181.829 31.597 181.104C31.4263 180.379 31.277 179.632 31.149 178.864C31.021 177.541 31.0423 176.005 31.213 174.256C31.4263 172.464 31.7037 171.163 32.045 170.352C32.429 169.499 32.621 168.944 32.621 168.688C32.621 168.56 32.6637 168.411 32.749 168.24C32.8343 168.069 32.9623 167.856 33.133 167.6C33.3463 167.344 33.7517 166.725 34.349 165.744C35.373 164.123 36.8237 163.163 38.701 162.864C40.7917 162.523 42.4343 162.672 43.629 163.312C44.0557 163.483 44.6743 164.037 45.485 164.976C46.2957 165.872 46.9357 166.683 47.405 167.408C47.5757 167.707 47.7677 168.069 47.981 168.496C48.1943 168.88 48.4077 169.328 48.621 169.84C48.877 170.565 49.0263 171.44 49.069 172.464C49.1117 172.976 49.1117 173.381 49.069 173.68C49.0263 173.979 48.941 174.171 48.813 174.256C48.5143 174.427 48.429 174.747 48.557 175.216C48.7277 175.643 49.0477 176.069 49.517 176.496C50.157 177.008 50.8183 177.584 51.501 178.224ZM43.437 171.12C43.0103 170.267 42.4983 169.413 41.901 168.56C41.3463 167.664 40.8983 167.131 40.557 166.96C40.2583 166.789 40.0023 166.704 39.789 166.704C39.5757 166.704 39.3837 166.747 39.213 166.832C39.1703 166.875 39.1063 166.939 39.021 167.024C38.9357 167.109 38.8503 167.216 38.765 167.344C38.7223 167.429 38.6583 167.557 38.573 167.728C38.4877 167.856 38.381 168.005 38.253 168.176C38.1677 168.347 38.0823 168.539 37.997 168.752C37.357 170.16 36.8663 171.76 36.525 173.552C36.2263 175.301 36.1837 176.795 36.397 178.032C36.5677 179.056 36.7597 179.845 36.973 180.4C37.229 180.955 37.485 181.275 37.741 181.36C37.997 181.488 38.381 181.296 38.893 180.784C39.4477 180.229 39.8743 179.611 40.173 178.928C40.813 177.349 41.325 176.048 41.709 175.024C41.837 174.597 41.965 174.256 42.093 174C42.2637 173.744 42.413 173.552 42.541 173.424C42.7117 173.253 42.8823 173.147 43.053 173.104C43.1383 173.061 43.2237 173.04 43.309 173.04C43.437 172.997 43.5223 172.955 43.565 172.912C43.6503 172.869 43.7143 172.827 43.757 172.784C43.8423 172.741 43.9063 172.677 43.949 172.592C44.0343 172.464 43.8637 171.973 43.437 171.12ZM58.261 164.336C58.9437 163.995 59.797 163.867 60.821 163.952L62.293 164.016L62.485 165.04C62.5277 165.68 62.357 166.64 61.973 167.92C61.5037 169.243 61.2903 170.8 61.333 172.592C61.333 173.189 61.3543 173.744 61.397 174.256C61.4823 174.768 61.5677 175.237 61.653 175.664C61.781 176.091 61.9303 176.475 62.101 176.816C62.5277 177.883 62.8263 178.416 62.997 178.416C63.2957 178.416 63.8077 177.819 64.533 176.624C65.2583 175.429 65.941 174.149 66.581 172.784C67.3917 171.077 68.0103 170.16 68.437 170.032C68.9063 169.819 69.717 169.755 70.869 169.84C72.0637 169.925 72.7677 170.075 72.981 170.288C73.0663 170.373 73.1517 170.523 73.237 170.736C73.3223 170.907 73.3863 171.141 73.429 171.44C73.5143 171.739 73.5783 172.059 73.621 172.4C73.749 172.955 74.005 174.363 74.389 176.624C74.6877 178.331 74.8797 180.101 74.965 181.936C75.0503 183.173 75.093 183.963 75.093 184.304C75.0503 184.603 74.9437 184.773 74.773 184.816C74.4743 184.987 74.3037 185.2 74.261 185.456C74.2183 185.755 74.3677 185.968 74.709 186.096C74.837 186.181 74.9437 186.309 75.029 186.48C75.1143 186.693 75.157 186.971 75.157 187.312C75.1997 187.44 75.221 187.547 75.221 187.632C75.2637 187.76 75.285 187.867 75.285 187.952C75.3277 188.037 75.349 188.101 75.349 188.144C75.3917 188.187 75.4343 188.229 75.477 188.272C75.6477 188.357 76.1383 188.421 76.949 188.464C77.9303 188.549 78.8477 188.507 79.701 188.336C80.4263 188.165 81.237 188.123 82.133 188.208C82.3463 188.251 82.517 188.272 82.645 188.272C82.8157 188.315 82.9437 188.357 83.029 188.4C83.1143 188.443 83.1783 188.485 83.221 188.528C83.2637 188.528 83.285 188.549 83.285 188.592C83.3277 188.677 83.349 188.763 83.349 188.848C83.3917 188.933 83.413 189.019 83.413 189.104C83.4557 189.232 83.477 189.36 83.477 189.488C83.5197 190.256 83.3063 190.896 82.837 191.408C82.709 191.493 82.581 191.579 82.453 191.664C82.3677 191.749 82.261 191.813 82.133 191.856C82.005 191.941 81.877 191.984 81.749 191.984C81.365 192.069 80.405 192.112 78.869 192.112C78.4423 192.112 78.0583 192.112 77.717 192.112C77.4183 192.112 77.141 192.112 76.885 192.112C76.629 192.155 76.4157 192.176 76.245 192.176C76.0743 192.219 75.925 192.24 75.797 192.24C75.669 192.283 75.541 192.325 75.413 192.368C75.3277 192.453 75.2637 192.539 75.221 192.624C75.0077 192.837 74.837 193.221 74.709 193.776C74.581 194.373 74.197 195.355 73.557 196.72C73.2157 197.403 72.8317 198 72.405 198.512C72.021 199.067 71.6157 199.515 71.189 199.856C70.3783 200.453 69.6743 200.88 69.077 201.136C68.7783 201.307 68.4583 201.435 68.117 201.52C67.7757 201.648 67.4343 201.733 67.093 201.776C66.4103 201.861 65.4717 201.904 64.277 201.904C62.2717 201.904 60.8423 201.691 59.989 201.264C59.2637 200.837 58.7943 200.432 58.581 200.048C58.4957 199.835 58.4103 199.536 58.325 199.152C58.2823 198.811 58.261 198.363 58.261 197.808C58.261 196.101 58.965 194.48 60.373 192.944C60.4583 192.859 60.5437 192.773 60.629 192.688C60.7143 192.645 60.7997 192.581 60.885 192.496C60.9703 192.411 61.0557 192.325 61.141 192.24C61.4823 192.027 61.845 191.792 62.229 191.536C62.613 191.28 63.0183 191.024 63.445 190.768C63.9143 190.512 64.3623 190.277 64.789 190.064C65.2583 189.893 65.7277 189.723 66.197 189.552C66.325 189.509 66.453 189.445 66.581 189.36C66.7517 189.317 66.901 189.275 67.029 189.232C67.1997 189.232 67.349 189.211 67.477 189.168C68.885 188.741 69.653 188.464 69.781 188.336C69.909 188.165 69.8663 186.864 69.653 184.432C69.4823 182 69.2903 180.677 69.077 180.464C69.0343 180.336 68.9277 180.293 68.757 180.336C68.629 180.379 68.4583 180.464 68.245 180.592C68.0743 180.72 67.8397 180.891 67.541 181.104C67.1997 181.445 66.8157 181.744 66.389 182C66.005 182.213 65.5997 182.384 65.173 182.512C64.7463 182.683 64.2983 182.789 63.829 182.832C63.1037 182.917 62.3997 182.896 61.717 182.768C61.0343 182.683 60.373 182.469 59.733 182.128C59.605 182.085 59.477 182.043 59.349 182C59.2637 181.915 59.1783 181.851 59.093 181.808C59.0077 181.765 58.9223 181.723 58.837 181.68C58.7517 181.637 58.6663 181.595 58.581 181.552C58.5383 181.467 58.4743 181.403 58.389 181.36C58.3463 181.317 58.3037 181.275 58.261 181.232C58.005 180.976 57.685 180.421 57.301 179.568C56.277 177.307 55.9143 174.149 56.213 170.096C56.3837 168.219 56.6183 166.875 56.917 166.064C57.045 165.637 57.2157 165.296 57.429 165.04C57.6423 164.741 57.9197 164.507 58.261 164.336ZM69.461 192.944C69.461 192.261 68.7357 192.453 67.285 193.52C66.9863 193.691 66.709 193.861 66.453 194.032C66.197 194.245 65.9623 194.459 65.749 194.672C65.5783 194.843 65.4077 194.992 65.237 195.12C65.109 195.248 64.981 195.376 64.853 195.504C64.725 195.675 64.597 195.824 64.469 195.952C64.1277 196.379 63.9357 196.72 63.893 196.976C63.765 197.189 63.7223 197.381 63.765 197.552C63.8503 197.723 63.957 197.872 64.085 198C64.2557 198.128 64.4477 198.235 64.661 198.32C64.7463 198.32 64.8317 198.32 64.917 198.32C65.045 198.32 65.1517 198.32 65.237 198.32C66.005 198.107 66.901 197.339 67.925 196.016C68.949 194.736 69.461 193.712 69.461 192.944ZM87.9575 148.656C88.2562 148.571 88.9815 148.549 90.1335 148.592H91.9255L91.8615 150.832C91.8615 152.197 91.7335 155.056 91.4775 159.408C91.2642 162.608 91.1362 166.512 91.0935 171.12C91.0935 175.728 91.1788 178.523 91.3495 179.504C91.5202 180.571 91.7975 181.189 92.1815 181.36C92.3522 181.488 92.6935 181.573 93.2055 181.616C93.7602 181.659 94.4855 181.68 95.3815 181.68C96.5335 181.637 97.6215 181.595 98.6455 181.552C99.7122 181.509 100.672 181.445 101.526 181.36C103.36 181.189 106.496 181.04 110.934 180.912C112.555 180.827 113.835 180.784 114.774 180.784C115.755 180.784 116.374 180.784 116.63 180.784C116.928 180.784 117.163 180.827 117.333 180.912C117.504 180.997 117.632 181.104 117.718 181.232C117.974 181.744 118.08 182.32 118.038 182.96C118.038 183.6 117.888 183.963 117.59 184.048C116.822 184.347 111.424 184.752 101.398 185.264C97.3442 185.435 94.1655 185.477 91.8615 185.392C89.5148 185.349 88.0428 185.157 87.4455 184.816C86.4642 184.304 85.8242 182.021 85.5255 177.968C85.3122 174.896 85.3335 170.075 85.5895 163.504C85.6748 161.371 85.7602 159.536 85.8455 158C85.9308 156.421 86.0162 155.205 86.1015 154.352C86.2295 153.456 86.3575 152.901 86.4855 152.688C86.6988 152.261 86.8055 151.664 86.8055 150.896C86.8055 149.701 87.1895 148.955 87.9575 148.656ZM125.656 163.632C126.637 163.248 127.192 163.056 127.32 163.056L127.96 163.184C128.216 163.312 128.451 163.461 128.664 163.632L128.984 163.952C128.984 164.037 129.155 164.187 129.496 164.4C129.88 164.571 130.307 164.784 130.776 165.04C131.245 165.253 131.693 165.445 132.12 165.616C132.589 165.787 132.888 165.872 133.016 165.872C133.272 165.872 133.635 166.043 134.104 166.384C134.573 166.683 135.149 167.152 135.832 167.792C136.173 168.133 136.472 168.453 136.728 168.752C137.027 169.008 137.261 169.243 137.432 169.456C137.603 169.669 137.731 169.861 137.816 170.032C137.901 170.203 137.944 170.352 137.944 170.48C137.944 170.523 137.944 170.587 137.944 170.672C137.987 170.715 138.008 170.779 138.008 170.864C138.051 170.949 138.093 171.035 138.136 171.12C138.179 171.205 138.221 171.291 138.264 171.376C138.349 171.461 138.413 171.568 138.456 171.696C139.096 172.549 139.459 173.979 139.544 175.984C139.629 177.989 139.416 179.653 138.904 180.976C138.691 181.445 138.349 181.957 137.88 182.512C137.411 183.067 136.877 183.557 136.28 183.984C135.725 184.453 135.256 184.731 134.872 184.816C134.659 184.859 134.424 184.901 134.168 184.944C133.955 185.029 133.741 185.136 133.528 185.264C133.101 185.392 132.077 185.456 130.456 185.456C126.232 185.456 123.373 184.091 121.88 181.36C121.027 179.781 120.493 178.672 120.28 178.032C120.067 177.349 119.96 176.432 119.96 175.28C120.003 173.787 120.173 172.507 120.472 171.44C120.813 170.501 120.963 169.285 120.92 167.792C120.835 166.597 120.899 165.851 121.112 165.552C121.197 165.381 121.389 165.232 121.688 165.104C121.987 164.933 122.371 164.784 122.84 164.656C123.181 164.528 123.587 164.379 124.056 164.208C124.525 164.037 125.059 163.845 125.656 163.632ZM129.112 168.752C128.173 168.325 127.619 168.112 127.448 168.112C127.32 168.112 127.192 168.155 127.064 168.24C126.979 168.283 126.872 168.389 126.744 168.56C126.616 168.731 126.509 168.944 126.424 169.2C126.083 169.925 125.805 170.864 125.592 172.016C125.379 173.125 125.272 174.213 125.272 175.28C125.272 176.091 125.336 176.795 125.464 177.392C125.507 177.52 125.549 177.669 125.592 177.84C125.635 177.968 125.677 178.117 125.72 178.288C125.805 178.416 125.891 178.544 125.976 178.672C126.061 178.8 126.147 178.928 126.232 179.056C126.36 179.227 126.488 179.397 126.616 179.568C126.787 179.739 126.957 179.909 127.128 180.08C127.299 180.251 127.491 180.443 127.704 180.656C127.832 180.741 127.939 180.848 128.024 180.976C128.109 181.061 128.195 181.147 128.28 181.232C128.408 181.275 128.515 181.339 128.6 181.424C128.685 181.467 128.749 181.509 128.792 181.552C128.877 181.595 128.941 181.637 128.984 181.68C129.283 181.808 129.773 181.872 130.456 181.872C131.053 181.872 131.48 181.808 131.736 181.68C131.864 181.637 132.013 181.552 132.184 181.424C132.397 181.296 132.611 181.125 132.824 180.912C133.08 180.613 133.315 180.293 133.528 179.952C133.741 179.568 133.912 179.163 134.04 178.736C134.253 177.925 134.296 176.944 134.168 175.792C134.083 174.597 133.848 173.637 133.464 172.912C133.251 172.528 132.995 172.144 132.696 171.76C132.397 171.333 132.056 170.949 131.672 170.608C131.288 170.224 130.861 169.883 130.392 169.584C129.923 169.243 129.496 168.965 129.112 168.752ZM149.716 164.4C150.868 164.187 151.999 164.144 153.108 164.272C153.62 164.315 154.068 164.421 154.452 164.592C154.836 164.72 155.113 164.891 155.284 165.104C155.583 165.36 155.945 165.616 156.372 165.872C157.183 166.299 157.737 167.152 158.036 168.432C158.335 169.669 158.249 170.736 157.78 171.632C157.396 172.315 157.524 173.765 158.164 175.984C158.335 176.539 158.463 177.221 158.548 178.032C158.676 178.8 158.783 179.653 158.868 180.592C158.953 182.555 159.124 183.813 159.38 184.368C159.551 184.752 159.743 184.987 159.956 185.072C160.041 185.157 160.212 185.2 160.468 185.2C160.767 185.243 161.129 185.264 161.556 185.264C162.025 185.221 162.431 185.221 162.772 185.264C163.113 185.349 163.348 185.435 163.476 185.52C163.817 185.776 163.924 186.245 163.796 186.928C163.711 187.44 163.412 187.845 162.9 188.144C162.431 188.485 161.855 188.656 161.172 188.656C160.575 188.699 160.169 188.912 159.956 189.296C159.785 189.723 159.7 190.576 159.7 191.856C159.7 193.264 159.551 194.416 159.252 195.312C159.039 195.995 158.804 196.784 158.548 197.68C158.548 197.765 158.527 197.851 158.484 197.936C158.441 198.021 158.399 198.107 158.356 198.192C158.313 198.277 158.249 198.363 158.164 198.448C158.121 198.576 158.036 198.683 157.908 198.768C157.823 198.896 157.716 199.024 157.588 199.152C157.503 199.28 157.396 199.408 157.268 199.536C157.14 199.664 157.012 199.813 156.884 199.984C156.031 200.837 155.263 201.371 154.58 201.584C154.281 201.669 153.791 201.733 153.108 201.776C152.468 201.861 151.679 201.904 150.74 201.904C149.033 201.861 147.796 201.712 147.028 201.456C146.303 201.243 145.599 200.773 144.916 200.048C144.447 199.536 144.127 199.173 143.956 198.96C143.828 198.747 143.743 198.512 143.7 198.256C143.7 198.128 143.679 197.936 143.636 197.68C143.636 197.467 143.636 197.189 143.636 196.848C143.636 194.587 144.276 193.008 145.556 192.112C146.793 191.173 147.497 190.619 147.668 190.448C148.351 189.893 149.375 189.232 150.74 188.464C152.105 187.696 152.98 187.312 153.364 187.312C153.492 187.312 153.599 187.269 153.684 187.184C153.812 187.141 153.897 187.056 153.94 186.928C154.025 186.843 154.068 186.736 154.068 186.608C154.111 186.48 154.132 186.309 154.132 186.096C154.132 185.925 154.111 185.691 154.068 185.392C154.068 185.136 154.047 184.837 154.004 184.496C153.961 184.155 153.919 183.771 153.876 183.344C153.705 181.381 153.513 179.931 153.3 178.992C153.129 178.011 152.916 177.52 152.66 177.52C152.532 177.52 152.255 177.755 151.828 178.224C150.847 179.333 149.183 179.888 146.836 179.888C144.532 179.888 142.953 179.291 142.1 178.096C141.929 177.797 141.78 177.541 141.652 177.328C141.609 177.2 141.567 177.072 141.524 176.944C141.524 176.773 141.503 176.603 141.46 176.432C141.46 176.219 141.46 175.984 141.46 175.728C141.46 175.429 141.46 175.109 141.46 174.768C141.46 173.787 141.524 173.04 141.652 172.528C141.78 171.973 142.057 171.227 142.484 170.288C142.868 169.52 143.316 168.816 143.828 168.176C144.34 167.493 144.895 166.896 145.492 166.384C146.772 165.36 148.18 164.699 149.716 164.4ZM152.148 168.752C151.721 168.283 151.337 168.069 150.996 168.112C150.655 168.155 150.207 168.432 149.652 168.944C147.903 170.437 147.028 172.101 147.028 173.936C147.028 174.235 147.028 174.491 147.028 174.704C147.071 174.875 147.092 175.045 147.092 175.216C147.135 175.344 147.177 175.451 147.22 175.536C147.263 175.579 147.305 175.6 147.348 175.6C147.433 175.6 147.519 175.579 147.604 175.536C147.689 175.451 147.775 175.344 147.86 175.216C147.988 175.088 148.116 174.939 148.244 174.768C148.628 174.213 148.969 173.595 149.268 172.912C149.439 172.272 149.78 171.675 150.292 171.12C150.548 170.864 150.761 170.672 150.932 170.544C151.145 170.373 151.337 170.288 151.508 170.288C151.679 170.288 151.828 170.267 151.956 170.224C152.127 170.139 152.276 170.011 152.404 169.84C152.532 169.669 152.575 169.499 152.532 169.328C152.489 169.157 152.361 168.965 152.148 168.752ZM154.068 192.112C154.068 192.069 154.047 192.005 154.004 191.92C153.961 191.877 153.919 191.856 153.876 191.856C153.705 191.685 153.385 191.792 152.916 192.176C152.575 192.475 152.084 192.773 151.444 193.072C150.932 193.285 150.569 193.563 150.356 193.904C150.185 194.331 149.951 194.736 149.652 195.12C149.097 195.845 148.991 196.549 149.332 197.232C149.673 197.915 150.271 198.256 151.124 198.256C151.38 198.256 151.636 198.192 151.892 198.064C152.148 197.936 152.383 197.744 152.596 197.488C152.809 197.275 153.023 196.976 153.236 196.592C153.876 195.483 154.196 194.309 154.196 193.072C154.196 192.944 154.196 192.816 154.196 192.688C154.196 192.56 154.175 192.453 154.132 192.368C154.132 192.283 154.111 192.197 154.068 192.112Z" fill="#9CB2FF"/>
<path fill-rule="evenodd" clip-rule="evenodd" d="M61.0969 21.8931C57.7169 25.2097 50.2877 23.0782 45.4489 23.0782C35.6036 23.0782 25.4204 23.7353 17.973 31.293C16.1054 33.1881 14.8515 36.462 14.2931 39.01C13.5547 42.3802 12.4561 45.9918 13.3118 49.4643C16.1732 61.0787 31.6775 64.5805 36.6171 74.6057C38.6367 78.7035 29.0029 82 27.0502 83.3184C14.8994 91.5181 13.6439 102.105 14.5385 108.46C16.112 119.635 24.5572 129.008 35.6358 130.614C42.6272 131.627 49.816 128.307 56.2424 126.133C61.6132 124.317 69.5347 117.817 75.6233 120.906C81.089 123.679 86.5482 130.498 90.8327 134.846C94.7299 138.799 103.905 138.129 108.741 137.584C111.208 137.306 114.441 136.306 116.591 134.846C135.166 122.23 116.576 106.59 116.837 103.979C117.264 99.6968 126.19 101.645 132.537 99.4982C144.709 95.3812 153.812 81.461 150.2 68.6313C147.792 60.0813 139.05 55.7329 131.555 53.1983C128.478 52.1573 118.951 53.4129 117.573 49.2154C116.768 46.7663 118.708 29.4617 118.175 23.9415C116.162 3.09234 94.6935 -2.82844 81.0254 1.17126C70.5515 4.23556 65.5748 17.4986 61.0969 21.8931Z" fill="#9CB2FF"/>
<path d="M57.5438 44.9827C57.5438 47.454 57.2982 49.8804 57.2982 52.3511" stroke="white" stroke-width="5" stroke-linecap="round"/>
<path d="M96.1052 54.5616C95.9284 56.6832 95.0588 58.9289 94.3859 60.9475" stroke="white" stroke-width="5" stroke-linecap="round"/>
<path d="M71 82C71.5942 85.2683 75.6734 87.3999 78.4503 88.1403C80.2404 88.6177 82.2428 88.386 84.0994 88.386C85.8281 88.386 87.3082 88.0131 88.6842 86.9123" stroke="white" stroke-width="5" stroke-linecap="round"/>
</svg>
